<svg width="238" height="28" viewBox="0 0 238 28" fill="none" xmlns="http://www.w3.org/2000/svg">
<g clip-path="url(#clip0_10167_156246)">
<path d="M88.7597 27.9963C88.2851 27.9975 87.8117 27.9494 87.3471 27.8527C86.3466 27.6459 85.4006 27.2319 84.5698 26.6373C83.7391 26.0427 83.0421 25.2807 82.5237 24.4004L82.4972 24.3513C82.24 23.864 82.1776 23.297 82.3228 22.7654C82.468 22.2338 82.8098 21.7772 83.2791 21.4882C83.6041 21.2927 83.9763 21.1896 84.3556 21.1899C84.7334 21.1904 85.1043 21.2915 85.4302 21.4826C85.7561 21.6738 86.0253 21.9482 86.2102 22.2777L86.2819 22.3985L86.5085 22.7045L86.8107 23.0104C87.2037 23.3504 87.6791 23.5809 88.1894 23.679C88.602 23.7588 89.0268 23.7517 89.4365 23.658C89.8463 23.5644 90.232 23.3863 90.569 23.1351C90.9171 22.8874 91.2059 22.5654 91.4143 22.1924C91.6227 21.8193 91.7455 21.4047 91.7739 20.9783C91.8088 20.5563 91.7531 20.1317 91.6104 19.733C91.4678 19.3343 91.2415 18.9707 90.9467 18.6667C90.9467 18.6667 83.9816 11.4901 83.8306 11.2899L83.4868 10.78C82.6719 9.50814 82.3038 8.00109 82.4406 6.49674C82.5151 5.45436 82.8237 4.44218 83.3433 3.53546L83.6455 3.00666C84.1952 2.22042 84.9141 1.56734 85.7493 1.09542L86.0931 0.849909C87.6998 -0.033301 89.5889 -0.251113 91.3545 0.243257C93.1201 0.737628 94.6214 1.90474 95.5359 3.49391C95.6784 3.73374 95.7712 3.99978 95.8089 4.2762C95.8465 4.55262 95.8282 4.83378 95.755 5.10298C95.6825 5.37704 95.5559 5.63384 95.3827 5.85827C95.2096 6.08271 94.9932 6.27025 94.7465 6.40987C94.4322 6.59632 94.0733 6.69421 93.7078 6.69316C93.332 6.69213 92.9633 6.59119 92.6394 6.4007C92.3155 6.21021 92.0481 5.93701 91.8645 5.60912C91.6652 5.27002 91.3962 4.97714 91.0751 4.74988C90.7541 4.52262 90.3885 4.36617 90.0024 4.29089C89.6099 4.21446 89.2059 4.22031 88.8158 4.30808C88.4257 4.39585 88.058 4.56363 87.7361 4.80081C87.4268 5.04187 87.1725 5.34614 86.9901 5.69331C86.8077 6.04047 86.7015 6.42255 86.6785 6.81403C86.6458 7.207 86.6962 7.60245 86.8263 7.97468C86.9565 8.34691 87.1635 8.68759 87.4339 8.97455L93.9797 15.7243C94.9671 16.7487 95.6309 18.0412 95.8884 19.4404C96.146 20.8397 95.9858 22.2838 95.4278 23.5926C94.8699 24.9014 93.939 26.017 92.7511 26.8001C91.5633 27.5832 90.1711 27.9992 88.7484 27.9963H88.7597Z" fill="#003D8F"/>
<path d="M68.0525 27.9924C66.1868 27.9904 64.3981 27.2484 63.0789 25.9292C61.7596 24.61 61.0176 22.8213 61.0156 20.9556V7.03683C61.0156 6.11274 61.1976 5.1977 61.5513 4.34395C61.9049 3.4902 62.4232 2.71447 63.0767 2.06104C63.7301 1.40761 64.5058 0.88928 65.3596 0.535647C66.2133 0.182013 67.1284 0 68.0525 0C68.9765 0 69.8916 0.182013 70.7453 0.535647C71.5991 0.88928 72.3748 1.40761 73.0282 2.06104C73.6817 2.71447 74.2 3.4902 74.5536 4.34395C74.9073 5.1977 75.0893 6.11274 75.0893 7.03683V20.9556C75.0873 22.8213 74.3453 24.61 73.026 25.9292C71.7068 27.2484 69.9181 27.9904 68.0525 27.9924ZM68.0525 4.24929C67.3135 4.25029 66.605 4.5443 66.0825 5.06685C65.5599 5.58939 65.2659 6.29783 65.2649 7.03683V20.9556C65.2609 21.3228 65.3302 21.6871 65.4689 22.0271C65.6075 22.3672 65.8127 22.6761 66.0724 22.9357C66.332 23.1954 66.6409 23.4006 66.9809 23.5392C67.321 23.6779 67.6853 23.7472 68.0525 23.7432C68.7914 23.7422 69.4999 23.4481 70.0224 22.9256C70.545 22.4031 70.839 21.6946 70.84 20.9556V7.03683C70.8302 6.30057 70.5334 5.59722 70.0127 5.07656C69.4921 4.5559 68.7887 4.25907 68.0525 4.24929Z" fill="#003D8F"/>
<path d="M40.7221 14.357V25.8887C40.7221 26.4516 40.4984 26.9916 40.1003 27.3897C39.7022 27.7878 39.1623 28.0114 38.5993 28.0114C38.0363 28.0114 37.4964 27.7878 37.0983 27.3897C36.7002 26.9916 36.4766 26.4516 36.4766 25.8887V5.54115L40.7221 14.357ZM52.1857 22.4628V2.12284C52.1626 1.57484 51.9287 1.05697 51.5327 0.677399C51.1368 0.297825 50.6096 0.0859039 50.0611 0.0859039C49.5126 0.0859039 48.9853 0.297825 48.5894 0.677399C48.1935 1.05697 47.9595 1.57484 47.9364 2.12284V13.6431L52.1857 22.4628ZM40.5219 1.20499V1.16344C40.3305 0.821197 40.0517 0.535934 39.7139 0.336836C39.3761 0.137737 38.9914 0.0319491 38.5993 0.0302954C38.4558 0.0296134 38.3127 0.0448144 38.1725 0.0756211C37.695 0.168605 37.2654 0.426495 36.9589 0.804185C36.6523 1.18187 36.4883 1.65532 36.4954 2.14172V2.62897L48.1517 26.8292C48.3345 27.1736 48.6059 27.463 48.9379 27.6675C49.2699 27.872 49.6505 27.9842 50.0403 27.9925C50.2046 27.9929 50.3683 27.9726 50.5276 27.9321C50.9967 27.834 51.4177 27.5772 51.7198 27.205C52.0218 26.8328 52.1863 26.368 52.1857 25.8887V25.409C52.1857 25.409 40.8354 1.85088 40.5219 1.20499Z" fill="#003D8F"/>
<path d="M20.5485 27.9924C18.6826 27.9914 16.8933 27.2497 15.5739 25.9303C14.2544 24.6109 13.5127 22.8216 13.5117 20.9556V7.03683C13.5117 5.17054 14.2531 3.3807 15.5728 2.06104C16.8924 0.741378 18.6823 0 20.5485 0C22.4148 0 24.2047 0.741378 25.5243 2.06104C26.844 3.3807 27.5854 5.17054 27.5854 7.03683V20.9556C27.5844 22.8216 26.8427 24.6109 25.5232 25.9303C24.2038 27.2497 22.4145 27.9914 20.5485 27.9924ZM20.5485 4.24929C20.1823 4.24879 19.8196 4.32056 19.4812 4.46047C19.1428 4.60038 18.8353 4.80569 18.5764 5.06463C18.3174 5.32358 18.1121 5.63107 17.9722 5.9695C17.8323 6.30792 17.7605 6.67062 17.761 7.03683V20.9556C17.761 21.6949 18.0547 22.4039 18.5775 22.9267C19.1002 23.4495 19.8092 23.7432 20.5485 23.7432C21.2878 23.7432 21.9969 23.4495 22.5196 22.9267C23.0424 22.4039 23.3361 21.6949 23.3361 20.9556V7.03683C23.3263 6.30057 23.0295 5.59722 22.5088 5.07656C21.9882 4.5559 21.2848 4.25907 20.5485 4.24929Z" fill="#003D8F"/>
<path d="M2.30815 27.9813C2.00241 27.9828 1.69944 27.9233 1.41701 27.8062C1.13457 27.6891 0.878366 27.5168 0.663408 27.2994C0.448451 27.082 0.279072 26.8238 0.165205 26.5401C0.0513393 26.2563 -0.00472144 25.9527 0.000311151 25.647V2.27776C0.0112357 1.67029 0.26127 1.09163 0.696157 0.66735C1.13105 0.24307 1.7157 0.00739745 2.32326 0.0114732C2.83202 0.00402855 3.32849 0.168009 3.73273 0.477015C4.13698 0.786021 4.42547 1.22207 4.55177 1.71497C4.56735 1.76837 4.57996 1.82259 4.58955 1.87738V1.97937C4.61117 2.10408 4.62128 2.23052 4.61976 2.35708C4.61976 2.35708 4.61976 25.3977 4.61976 25.6621C4.62176 25.9666 4.56339 26.2684 4.44802 26.5502C4.33265 26.832 4.16258 27.0881 3.94763 27.3038C3.73267 27.5194 3.47711 27.6903 3.1957 27.8066C2.9143 27.9229 2.61263 27.9823 2.30815 27.9813Z" fill="#003D8F"/>
</g>
<path d="M232.693 22.148C231.842 22.148 231.201 21.906 230.768 21.422C230.335 20.938 230.119 20.2303 230.119 19.299V12.809H228.414V10.642H230.119V7.177L232.583 6V10.642H235.201V12.809H232.583V18.76C232.583 19.1633 232.66 19.464 232.814 19.662C232.975 19.8527 233.221 19.948 233.551 19.948C234.086 19.948 234.669 19.772 235.3 19.42L235.025 21.642C234.68 21.8107 234.317 21.9353 233.936 22.016C233.555 22.104 233.14 22.148 232.693 22.148Z" fill="#003D8F"/>
<path d="M216.371 21.8841L220.353 16.0541L216.646 10.6421H219.462L221.101 13.0401C221.226 13.2088 221.347 13.3884 221.464 13.5791C221.589 13.7698 221.688 13.9458 221.761 14.1071C221.856 13.9384 221.963 13.7624 222.08 13.5791C222.197 13.3884 222.315 13.2088 222.432 13.0401L224.071 10.6421H226.898L223.18 16.0541L227.173 21.8841H224.346L222.421 19.0681C222.304 18.8921 222.186 18.7124 222.069 18.5291C221.959 18.3384 221.856 18.1624 221.761 18.0011C221.688 18.1624 221.589 18.3384 221.464 18.5291C221.339 18.7124 221.218 18.8921 221.101 19.0681L219.187 21.8841H216.371Z" fill="#003D8F"/>
<path d="M210.391 22.1479C209.328 22.1479 208.411 21.9023 207.641 21.4109C206.871 20.9196 206.281 20.2339 205.87 19.3539C205.459 18.4666 205.254 17.4326 205.254 16.2519C205.254 15.0273 205.467 13.9786 205.892 13.1059C206.317 12.2259 206.915 11.5513 207.685 11.0819C208.455 10.6126 209.357 10.3779 210.391 10.3779C211.278 10.3779 212.085 10.5686 212.811 10.9499C213.544 11.3313 214.127 11.9179 214.56 12.7099C214.993 13.4946 215.209 14.4956 215.209 15.7129C215.209 15.9036 215.205 16.1309 215.198 16.3949C215.191 16.6516 215.169 16.9119 215.132 17.1759H207.707C207.751 17.7479 207.887 18.2466 208.114 18.6719C208.349 19.0973 208.66 19.4309 209.049 19.6729C209.438 19.9076 209.896 20.0249 210.424 20.0249C210.937 20.0249 211.392 19.9406 211.788 19.7719C212.184 19.5959 212.562 19.3173 212.921 18.9359L214.351 20.4429C213.889 20.9489 213.324 21.3596 212.657 21.6749C211.997 21.9903 211.242 22.1479 210.391 22.1479ZM207.718 15.1849H212.789C212.767 14.6496 212.657 14.1803 212.459 13.7769C212.268 13.3736 211.997 13.0619 211.645 12.8419C211.293 12.6146 210.864 12.5009 210.358 12.5009C209.654 12.5009 209.053 12.7209 208.554 13.1609C208.063 13.6009 207.784 14.2756 207.718 15.1849Z" fill="#003D8F"/>
<path d="M190.297 21.8839V6.48389H192.717L199.031 16.1859C199.126 16.3326 199.233 16.5122 199.35 16.7249C199.475 16.9302 199.581 17.1319 199.669 17.3299C199.662 17.1539 199.651 16.9559 199.636 16.7359C199.629 16.5159 199.625 16.3326 199.625 16.1859V6.48389H202.155V21.8839H199.834L193.399 12.1379C193.311 11.9912 193.205 11.8116 193.08 11.5989C192.963 11.3862 192.856 11.1919 192.761 11.0159C192.79 11.1919 192.805 11.3826 192.805 11.5879C192.812 11.7859 192.816 11.9692 192.816 12.1379V21.8839H190.297Z" fill="#003D8F"/>
<path d="M177.133 22.1479C176.07 22.1479 175.153 21.9023 174.383 21.4109C173.613 20.9196 173.023 20.2339 172.612 19.3539C172.201 18.4666 171.996 17.4326 171.996 16.2519C171.996 15.0273 172.209 13.9786 172.634 13.1059C173.059 12.2259 173.657 11.5513 174.427 11.0819C175.197 10.6126 176.099 10.3779 177.133 10.3779C178.02 10.3779 178.827 10.5686 179.553 10.9499C180.286 11.3313 180.869 11.9179 181.302 12.7099C181.735 13.4946 181.951 14.4956 181.951 15.7129C181.951 15.9036 181.947 16.1309 181.94 16.3949C181.933 16.6516 181.911 16.9119 181.874 17.1759H174.449C174.493 17.7479 174.629 18.2466 174.856 18.6719C175.091 19.0973 175.402 19.4309 175.791 19.6729C176.18 19.9076 176.638 20.0249 177.166 20.0249C177.679 20.0249 178.134 19.9406 178.53 19.7719C178.926 19.5959 179.304 19.3173 179.663 18.9359L181.093 20.4429C180.631 20.9489 180.066 21.3596 179.399 21.6749C178.739 21.9903 177.984 22.1479 177.133 22.1479ZM174.46 15.1849H179.531C179.509 14.6496 179.399 14.1803 179.201 13.7769C179.01 13.3736 178.739 13.0619 178.387 12.8419C178.035 12.6146 177.606 12.5009 177.1 12.5009C176.396 12.5009 175.795 12.7209 175.296 13.1609C174.805 13.6009 174.526 14.2756 174.46 15.1849Z" fill="#003D8F"/>
<path d="M163.884 21.8841L159.77 10.6421H162.311L164.775 17.5941C164.833 17.7628 164.892 17.9388 164.951 18.1221C165.009 18.3054 165.061 18.4924 165.105 18.6831C165.156 18.4924 165.207 18.3091 165.259 18.1331C165.317 17.9498 165.38 17.7701 165.446 17.5941L167.877 10.6421H170.407L166.293 21.8841H163.884Z" fill="#003D8F"/>
<path d="M154.887 21.8839V10.6419H157.351V21.8839H154.887ZM156.108 9.01392C155.704 9.01392 155.36 8.87092 155.074 8.58492C154.788 8.29892 154.645 7.95425 154.645 7.55092C154.645 7.14025 154.784 6.79192 155.063 6.50592C155.349 6.21258 155.697 6.06592 156.108 6.06592C156.533 6.06592 156.885 6.20892 157.164 6.49492C157.45 6.78092 157.593 7.13292 157.593 7.55092C157.593 7.96158 157.45 8.30992 157.164 8.59592C156.878 8.87458 156.526 9.01392 156.108 9.01392Z" fill="#003D8F"/>
<path d="M146.014 21.8839V10.6419H148.478V11.9399C148.698 11.4559 149.028 11.0746 149.468 10.7959C149.915 10.5173 150.406 10.3779 150.942 10.3779C151.697 10.3779 152.335 10.6236 152.856 11.1149L152.515 13.3919C152.236 13.1719 151.957 13.0143 151.679 12.9189C151.4 12.8236 151.092 12.7759 150.755 12.7759C150.285 12.7759 149.882 12.8933 149.545 13.1279C149.207 13.3626 148.943 13.6963 148.753 14.1289C148.569 14.5616 148.478 15.0749 148.478 15.6689V21.8839H146.014Z" fill="#003D8F"/>
<path d="M130.721 21.8839V6.48389H135.583C136.917 6.48389 138.047 6.70389 138.971 7.14389C139.902 7.57655 140.654 8.16322 141.226 8.90389C141.805 9.63722 142.227 10.4622 142.491 11.3789C142.755 12.2956 142.887 13.2306 142.887 14.1839C142.887 15.0639 142.762 15.9549 142.513 16.8569C142.263 17.7589 141.856 18.5912 141.292 19.3539C140.727 20.1166 139.972 20.7289 139.026 21.1909C138.08 21.6529 136.903 21.8839 135.495 21.8839H130.721ZM133.262 19.4859H135.77C136.613 19.4859 137.321 19.3319 137.893 19.0239C138.465 18.7086 138.923 18.2906 139.268 17.7699C139.62 17.2492 139.869 16.6772 140.016 16.0539C140.17 15.4306 140.247 14.8072 140.247 14.1839C140.247 13.5239 140.166 12.8786 140.005 12.2479C139.843 11.6099 139.59 11.0379 139.246 10.5319C138.908 10.0259 138.472 9.62255 137.937 9.32189C137.401 9.01389 136.76 8.85989 136.012 8.85989H133.262V19.4859Z" fill="#003D8F"/>
<path d="M124.551 21.8839V10.6419H127.015V21.8839H124.551ZM125.772 9.01392C125.368 9.01392 125.024 8.87092 124.738 8.58492C124.452 8.29892 124.309 7.95425 124.309 7.55092C124.309 7.14025 124.448 6.79192 124.727 6.50592C125.013 6.21258 125.361 6.06592 125.772 6.06592C126.197 6.06592 126.549 6.20892 126.828 6.49492C127.114 6.78092 127.257 7.13292 127.257 7.55092C127.257 7.96158 127.114 8.30992 126.828 8.59592C126.542 8.87458 126.19 9.01392 125.772 9.01392Z" fill="#003D8F"/>
<path d="M109 21.8839V6.48389H111.541V12.7209H118.295V6.48389H120.836V21.8839H118.295V15.1299H111.541V21.8839H109Z" fill="#003D8F"/>
<g clip-path="url(#clip1_10167_156246)">
<path d="M88.7597 27.9963C88.2851 27.9975 87.8117 27.9494 87.3471 27.8527C86.3466 27.6459 85.4006 27.2319 84.5698 26.6373C83.7391 26.0427 83.0421 25.2807 82.5237 24.4004L82.4972 24.3513C82.24 23.864 82.1776 23.297 82.3228 22.7654C82.468 22.2338 82.8098 21.7772 83.2791 21.4882C83.6041 21.2927 83.9763 21.1896 84.3556 21.1899C84.7334 21.1904 85.1043 21.2915 85.4302 21.4826C85.7561 21.6738 86.0253 21.9482 86.2102 22.2777L86.2819 22.3985L86.5085 22.7045L86.8107 23.0104C87.2037 23.3504 87.6791 23.5809 88.1894 23.679C88.602 23.7588 89.0268 23.7517 89.4365 23.658C89.8463 23.5644 90.232 23.3863 90.569 23.1351C90.9171 22.8874 91.2059 22.5654 91.4143 22.1924C91.6227 21.8193 91.7455 21.4047 91.7739 20.9783C91.8088 20.5563 91.7531 20.1317 91.6104 19.733C91.4678 19.3343 91.2415 18.9707 90.9467 18.6667C90.9467 18.6667 83.9816 11.4901 83.8306 11.2899L83.4868 10.78C82.6719 9.50814 82.3038 8.00109 82.4406 6.49674C82.5151 5.45436 82.8237 4.44218 83.3433 3.53546L83.6455 3.00666C84.1952 2.22042 84.9141 1.56734 85.7493 1.09542L86.0931 0.849909C87.6998 -0.033301 89.5889 -0.251113 91.3545 0.243257C93.1201 0.737628 94.6214 1.90474 95.5359 3.49391C95.6784 3.73374 95.7712 3.99978 95.8089 4.2762C95.8465 4.55262 95.8282 4.83378 95.755 5.10298C95.6825 5.37704 95.5559 5.63384 95.3827 5.85827C95.2096 6.08271 94.9932 6.27025 94.7465 6.40987C94.4322 6.59632 94.0733 6.69421 93.7078 6.69316C93.332 6.69213 92.9633 6.59119 92.6394 6.4007C92.3155 6.21021 92.0481 5.93701 91.8645 5.60912C91.6652 5.27002 91.3962 4.97714 91.0751 4.74988C90.7541 4.52262 90.3885 4.36617 90.0024 4.29089C89.6099 4.21446 89.2059 4.22031 88.8158 4.30808C88.4257 4.39585 88.058 4.56363 87.7361 4.80081C87.4268 5.04187 87.1725 5.34614 86.9901 5.69331C86.8077 6.04047 86.7015 6.42255 86.6785 6.81403C86.6458 7.207 86.6962 7.60245 86.8263 7.97468C86.9565 8.34691 87.1635 8.68759 87.4339 8.97455L93.9797 15.7243C94.9671 16.7487 95.6309 18.0412 95.8884 19.4404C96.146 20.8397 95.9858 22.2838 95.4278 23.5926C94.8699 24.9014 93.939 26.017 92.7511 26.8001C91.5633 27.5832 90.1711 27.9992 88.7484 27.9963H88.7597Z" fill="#003D8F"/>
<path d="M68.0525 27.9924C66.1868 27.9904 64.3981 27.2484 63.0789 25.9292C61.7596 24.61 61.0176 22.8213 61.0156 20.9556V7.03683C61.0156 6.11274 61.1976 5.1977 61.5513 4.34395C61.9049 3.4902 62.4232 2.71447 63.0767 2.06104C63.7301 1.40761 64.5058 0.88928 65.3596 0.535647C66.2133 0.182013 67.1284 0 68.0525 0C68.9765 0 69.8916 0.182013 70.7453 0.535647C71.5991 0.88928 72.3748 1.40761 73.0282 2.06104C73.6817 2.71447 74.2 3.4902 74.5536 4.34395C74.9073 5.1977 75.0893 6.11274 75.0893 7.03683V20.9556C75.0873 22.8213 74.3453 24.61 73.026 25.9292C71.7068 27.2484 69.9181 27.9904 68.0525 27.9924ZM68.0525 4.24929C67.3135 4.25029 66.605 4.5443 66.0825 5.06685C65.5599 5.58939 65.2659 6.29783 65.2649 7.03683V20.9556C65.2609 21.3228 65.3302 21.6871 65.4689 22.0271C65.6075 22.3672 65.8127 22.6761 66.0724 22.9357C66.332 23.1954 66.6409 23.4006 66.9809 23.5392C67.321 23.6779 67.6853 23.7472 68.0525 23.7432C68.7914 23.7422 69.4999 23.4481 70.0224 22.9256C70.545 22.4031 70.839 21.6946 70.84 20.9556V7.03683C70.8302 6.30057 70.5334 5.59722 70.0127 5.07656C69.4921 4.5559 68.7887 4.25907 68.0525 4.24929Z" fill="#003D8F"/>
<path d="M40.7221 14.357V25.8887C40.7221 26.4516 40.4984 26.9916 40.1003 27.3897C39.7022 27.7878 39.1623 28.0114 38.5993 28.0114C38.0363 28.0114 37.4964 27.7878 37.0983 27.3897C36.7002 26.9916 36.4766 26.4516 36.4766 25.8887V5.54115L40.7221 14.357ZM52.1857 22.4628V2.12284C52.1626 1.57484 51.9287 1.05697 51.5327 0.677399C51.1368 0.297825 50.6096 0.0859039 50.0611 0.0859039C49.5126 0.0859039 48.9853 0.297825 48.5894 0.677399C48.1935 1.05697 47.9595 1.57484 47.9364 2.12284V13.6431L52.1857 22.4628ZM40.5219 1.20499V1.16344C40.3305 0.821197 40.0517 0.535934 39.7139 0.336836C39.3761 0.137737 38.9914 0.0319491 38.5993 0.0302954C38.4558 0.0296134 38.3127 0.0448144 38.1725 0.0756211C37.695 0.168605 37.2654 0.426495 36.9589 0.804185C36.6523 1.18187 36.4883 1.65532 36.4954 2.14172V2.62897L48.1517 26.8292C48.3345 27.1736 48.6059 27.463 48.9379 27.6675C49.2699 27.872 49.6505 27.9842 50.0403 27.9925C50.2046 27.9929 50.3683 27.9726 50.5276 27.9321C50.9967 27.834 51.4177 27.5772 51.7198 27.205C52.0218 26.8328 52.1863 26.368 52.1857 25.8887V25.409C52.1857 25.409 40.8354 1.85088 40.5219 1.20499Z" fill="#003D8F"/>
<path d="M20.5485 27.9924C18.6826 27.9914 16.8933 27.2497 15.5739 25.9303C14.2544 24.6109 13.5127 22.8216 13.5117 20.9556V7.03683C13.5117 5.17054 14.2531 3.3807 15.5728 2.06104C16.8924 0.741378 18.6823 0 20.5485 0C22.4148 0 24.2047 0.741378 25.5243 2.06104C26.844 3.3807 27.5854 5.17054 27.5854 7.03683V20.9556C27.5844 22.8216 26.8427 24.6109 25.5232 25.9303C24.2038 27.2497 22.4145 27.9914 20.5485 27.9924ZM20.5485 4.24929C20.1823 4.24879 19.8196 4.32056 19.4812 4.46047C19.1428 4.60038 18.8353 4.80569 18.5764 5.06463C18.3174 5.32358 18.1121 5.63107 17.9722 5.9695C17.8323 6.30792 17.7605 6.67062 17.761 7.03683V20.9556C17.761 21.6949 18.0547 22.4039 18.5775 22.9267C19.1002 23.4495 19.8092 23.7432 20.5485 23.7432C21.2878 23.7432 21.9969 23.4495 22.5196 22.9267C23.0424 22.4039 23.3361 21.6949 23.3361 20.9556V7.03683C23.3263 6.30057 23.0295 5.59722 22.5088 5.07656C21.9882 4.5559 21.2848 4.25907 20.5485 4.24929Z" fill="#003D8F"/>
<path d="M2.30815 27.9813C2.00241 27.9828 1.69944 27.9233 1.41701 27.8062C1.13457 27.6891 0.878366 27.5168 0.663408 27.2994C0.448451 27.082 0.279072 26.8238 0.165205 26.5401C0.0513393 26.2563 -0.00472144 25.9527 0.000311151 25.647V2.27776C0.0112357 1.67029 0.26127 1.09163 0.696157 0.66735C1.13105 0.24307 1.7157 0.00739745 2.32326 0.0114732C2.83202 0.00402855 3.32849 0.168009 3.73273 0.477015C4.13698 0.786021 4.42547 1.22207 4.55177 1.71497C4.56735 1.76837 4.57996 1.82259 4.58955 1.87738V1.97937C4.61117 2.10408 4.62128 2.23052 4.61976 2.35708C4.61976 2.35708 4.61976 25.3977 4.61976 25.6621C4.62176 25.9666 4.56339 26.2684 4.44802 26.5502C4.33265 26.832 4.16258 27.0881 3.94763 27.3038C3.73267 27.5194 3.47711 27.6903 3.1957 27.8066C2.9143 27.9229 2.61263 27.9823 2.30815 27.9813Z" fill="#003D8F"/>
</g>
<defs>
<clipPath id="clip0_10167_156246">
<rect width="96.034" height="28" fill="white"/>
</clipPath>
<clipPath id="clip1_10167_156246">
<rect width="96.034" height="28" fill="white"/>
</clipPath>
</defs>
</svg>
