<svg width="334" height="50" viewBox="0 0 334 50" fill="none" xmlns="http://www.w3.org/2000/svg">
<g clip-path="url(#clip0_82_6226)">
<path d="M89.6165 35.1443C89.275 35.1452 88.9344 35.1105 88.6 35.041C87.8802 34.8922 87.1994 34.5943 86.6017 34.1664C86.0039 33.7386 85.5024 33.1903 85.1294 32.5569L85.1104 32.5216C84.9253 32.1709 84.8804 31.763 84.9849 31.3804C85.0894 30.9979 85.3353 30.6694 85.673 30.4615C85.9068 30.3208 86.1746 30.2466 86.4475 30.2468C86.7194 30.2472 86.9863 30.3199 87.2208 30.4574C87.4552 30.595 87.6489 30.7924 87.782 31.0295L87.8336 31.1165L87.9967 31.3366L88.2141 31.5568C88.4968 31.8014 88.839 31.9673 89.2061 32.0378C89.503 32.0952 89.8087 32.0901 90.1035 32.0227C90.3983 31.9553 90.6758 31.8272 90.9183 31.6464C91.1688 31.4682 91.3766 31.2365 91.5265 30.9681C91.6765 30.6997 91.7649 30.4013 91.7853 30.0946C91.8105 29.7909 91.7703 29.4854 91.6677 29.1985C91.565 28.9116 91.4022 28.65 91.1901 28.4313C91.1901 28.4313 86.1785 23.2675 86.0698 23.1234L85.8224 22.7565C85.2361 21.8413 84.9712 20.757 85.0696 19.6745C85.1233 18.9245 85.3453 18.1962 85.7192 17.5438L85.9366 17.1633C86.3321 16.5975 86.8494 16.1276 87.4504 15.7881L87.6977 15.6114C88.8539 14.9759 90.2131 14.8192 91.4835 15.1749C92.754 15.5306 93.8342 16.3704 94.4922 17.5139C94.5948 17.6864 94.6615 17.8779 94.6886 18.0768C94.7157 18.2757 94.7025 18.478 94.6499 18.6717C94.5977 18.8689 94.5066 19.0536 94.382 19.2151C94.2574 19.3766 94.1017 19.5116 93.9242 19.612C93.698 19.7462 93.4398 19.8166 93.1768 19.8159C92.9064 19.8151 92.6411 19.7425 92.4081 19.6054C92.175 19.4684 91.9826 19.2718 91.8505 19.0358C91.7071 18.7919 91.5135 18.5811 91.2825 18.4176C91.0515 18.2541 90.7884 18.1415 90.5107 18.0873C90.2282 18.0323 89.9375 18.0365 89.6568 18.0997C89.3761 18.1629 89.1116 18.2836 88.88 18.4542C88.6574 18.6277 88.4744 18.8466 88.3432 19.0964C88.212 19.3462 88.1355 19.6211 88.119 19.9028C88.0954 20.1856 88.1317 20.4701 88.2253 20.738C88.319 21.0058 88.4679 21.2509 88.6625 21.4574L93.3725 26.3141C94.0829 27.0512 94.5606 27.9812 94.7459 28.988C94.9312 29.9948 94.8159 31.0339 94.4144 31.9757C94.013 32.9174 93.3431 33.7201 92.4885 34.2836C91.6338 34.847 90.6321 35.1464 89.6083 35.1443H89.6165Z" fill="#003D8F"/>
<path d="M74.7156 35.1416C73.3732 35.1402 72.0862 34.6063 71.1369 33.657C70.1877 32.7078 69.6538 31.4208 69.6523 30.0784V20.0633C69.6523 19.3983 69.7833 18.7399 70.0378 18.1256C70.2922 17.5113 70.6652 16.9532 71.1353 16.483C71.6055 16.0128 72.1637 15.6399 72.778 15.3854C73.3923 15.131 74.0507 15 74.7156 15C75.3805 15 76.0389 15.131 76.6532 15.3854C77.2675 15.6399 77.8257 16.0128 78.2959 16.483C78.766 16.9532 79.139 17.5113 79.3935 18.1256C79.6479 18.7399 79.7789 19.3983 79.7789 20.0633V30.0784C79.7774 31.4208 79.2435 32.7078 78.2943 33.657C77.3451 34.6063 76.058 35.1402 74.7156 35.1416V35.1416ZM74.7156 18.0575C74.1839 18.0582 73.6741 18.2698 73.2981 18.6458C72.9221 19.0218 72.7106 19.5315 72.7099 20.0633V30.0784C72.707 30.3426 72.7568 30.6047 72.8566 30.8494C72.9564 31.094 73.104 31.3163 73.2908 31.5031C73.4777 31.69 73.6999 31.8376 73.9446 31.9374C74.1893 32.0371 74.4514 32.087 74.7156 32.0841C75.2473 32.0834 75.7571 31.8718 76.1331 31.4958C76.5091 31.1198 76.7206 30.6101 76.7213 30.0784V20.0633C76.7143 19.5335 76.5007 19.0274 76.1261 18.6528C75.7515 18.2781 75.2454 18.0646 74.7156 18.0575V18.0575Z" fill="#003D8F"/>
<path d="M55.0509 25.3301V33.6276C55.0509 34.0327 54.89 34.4212 54.6035 34.7076C54.3171 34.994 53.9286 35.155 53.5235 35.155C53.1184 35.155 52.7299 34.994 52.4435 34.7076C52.157 34.4212 51.9961 34.0327 51.9961 33.6276V18.9868L55.0509 25.3301ZM63.2994 31.1625V16.5272C63.2828 16.1329 63.1145 15.7602 62.8296 15.4871C62.5447 15.214 62.1653 15.0615 61.7707 15.0615C61.376 15.0615 60.9966 15.214 60.7117 15.4871C60.4269 15.7602 60.2585 16.1329 60.2419 16.5272V24.8165L63.2994 31.1625ZM54.9069 15.8667V15.8368C54.7692 15.5906 54.5685 15.3853 54.3255 15.2421C54.0824 15.0988 53.8056 15.0227 53.5235 15.0215C53.4202 15.021 53.3172 15.0319 53.2164 15.0541C52.8728 15.121 52.5637 15.3066 52.3431 15.5783C52.1225 15.8501 52.0045 16.1908 52.0097 16.5408V16.8913L60.3968 34.3043C60.5283 34.5521 60.7236 34.7604 60.9625 34.9075C61.2014 35.0547 61.4752 35.1354 61.7557 35.1414C61.8739 35.1417 61.9917 35.1271 62.1063 35.0979C62.4439 35.0273 62.7468 34.8425 62.9641 34.5747C63.1815 34.3069 63.2999 33.9724 63.2994 33.6276V33.2824C63.2994 33.2824 55.1324 16.3315 54.9069 15.8667Z" fill="#003D8F"/>
<path d="M40.5359 35.1416C39.1933 35.1409 37.9058 34.6072 36.9564 33.6578C36.0071 32.7084 35.4734 31.421 35.4727 30.0784V20.0633C35.4727 18.7204 36.0061 17.4325 36.9557 16.483C37.9052 15.5334 39.1931 15 40.5359 15C41.8788 15 43.1666 15.5334 44.1162 16.483C45.0657 17.4325 45.5992 18.7204 45.5992 20.0633V30.0784C45.5985 31.421 45.0648 32.7084 44.1154 33.6578C43.166 34.6072 41.8786 35.1409 40.5359 35.1416V35.1416ZM40.5359 18.0575C40.2724 18.0572 40.0114 18.1088 39.7679 18.2095C39.5244 18.3101 39.3032 18.4579 39.1169 18.6442C38.9305 18.8305 38.7828 19.0518 38.6821 19.2953C38.5815 19.5388 38.5298 19.7998 38.5302 20.0633V30.0784C38.5302 30.6103 38.7415 31.1205 39.1176 31.4966C39.4938 31.8728 40.004 32.0841 40.5359 32.0841C41.0679 32.0841 41.578 31.8728 41.9542 31.4966C42.3303 31.1205 42.5417 30.6103 42.5417 30.0784V20.0633C42.5346 19.5335 42.321 19.0274 41.9464 18.6528C41.5718 18.2781 41.0657 18.0646 40.5359 18.0575V18.0575Z" fill="#003D8F"/>
<path d="M27.4108 35.1333C27.1908 35.1344 26.9728 35.0916 26.7696 35.0073C26.5664 34.9231 26.382 34.7991 26.2273 34.6427C26.0727 34.4862 25.9508 34.3005 25.8689 34.0963C25.7869 33.8921 25.7466 33.6737 25.7502 33.4537V16.6387C25.7581 16.2016 25.938 15.7852 26.2509 15.4799C26.5638 15.1746 26.9845 15.0051 27.4217 15.008C27.7877 15.0026 28.145 15.1206 28.4358 15.343C28.7267 15.5653 28.9343 15.8791 29.0252 16.2337C29.0364 16.2721 29.0455 16.3112 29.0524 16.3506V16.424C29.0679 16.5137 29.0752 16.6047 29.0741 16.6957C29.0741 16.6957 29.0741 33.2743 29.0741 33.4646C29.0755 33.6837 29.0335 33.9009 28.9505 34.1036C28.8675 34.3064 28.7451 34.4907 28.5905 34.6458C28.4358 34.801 28.2519 34.924 28.0494 35.0076C27.8469 35.0913 27.6299 35.134 27.4108 35.1333V35.1333Z" fill="#003D8F"/>
</g>
<path d="M296.253 24.5635C297.136 24.5635 297.896 24.7344 298.534 25.0762C299.172 25.4123 299.665 25.9022 300.012 26.5459C300.36 27.1896 300.534 27.9757 300.534 28.9043V30.1689H294.373C294.401 30.9038 294.621 31.482 295.031 31.9036C295.447 32.3194 296.022 32.5273 296.757 32.5273C297.366 32.5273 297.925 32.4647 298.432 32.3394C298.939 32.214 299.46 32.026 299.995 31.7754V33.792C299.523 34.0256 299.027 34.1965 298.509 34.3047C297.996 34.4129 297.372 34.467 296.637 34.467C295.68 34.467 294.831 34.2904 294.091 33.9373C293.356 33.5841 292.778 33.0457 292.356 32.3223C291.94 31.5988 291.732 30.6873 291.732 29.5879C291.732 28.4714 291.92 27.5428 292.296 26.8022C292.678 26.056 293.208 25.4977 293.886 25.1274C294.564 24.7515 295.353 24.5635 296.253 24.5635ZM296.27 26.4177C295.763 26.4177 295.341 26.5801 295.005 26.9048C294.675 27.2295 294.484 27.7393 294.433 28.4343H298.09C298.084 28.047 298.013 27.7023 297.876 27.4004C297.745 27.0985 297.546 26.8592 297.278 26.6826C297.016 26.506 296.68 26.4177 296.27 26.4177Z" fill="#003D8F"/>
<path d="M287.187 34.467C286.241 34.467 285.435 34.2961 284.769 33.9543C284.102 33.6069 283.595 33.0714 283.248 32.3479C282.9 31.6244 282.727 30.6987 282.727 29.5708C282.727 28.403 282.923 27.4517 283.316 26.7168C283.715 25.9762 284.265 25.4322 284.965 25.0847C285.672 24.7372 286.489 24.5635 287.418 24.5635C288.079 24.5635 288.648 24.629 289.127 24.76C289.611 24.8853 290.032 25.0363 290.391 25.2129L289.622 27.2295C289.212 27.0643 288.83 26.9304 288.477 26.8279C288.124 26.7196 287.771 26.6655 287.418 26.6655C286.962 26.6655 286.583 26.7738 286.281 26.9902C285.979 27.201 285.754 27.52 285.606 27.9473C285.458 28.3745 285.384 28.91 285.384 29.5537C285.384 30.186 285.464 30.7101 285.623 31.126C285.783 31.5418 286.014 31.8523 286.315 32.0574C286.617 32.2568 286.985 32.3564 287.418 32.3564C287.959 32.3564 288.44 32.2852 288.862 32.1428C289.283 31.9947 289.694 31.7896 290.092 31.5276V33.7578C289.694 34.0085 289.275 34.1879 288.836 34.2961C288.403 34.4101 287.854 34.467 287.187 34.467Z" fill="#003D8F"/>
<path d="M276.644 24.5459C277.925 24.5459 278.908 24.825 279.592 25.3833C280.275 25.9416 280.617 26.7904 280.617 27.9297V34.2957H278.797L278.293 32.9968H278.224C277.951 33.3386 277.672 33.6178 277.387 33.8342C277.102 34.0507 276.775 34.2102 276.404 34.3127C276.034 34.4153 275.584 34.4666 275.054 34.4666C274.49 34.4666 273.983 34.3583 273.533 34.1418C273.089 33.9254 272.739 33.595 272.482 33.1506C272.226 32.7006 272.098 32.1309 272.098 31.4417C272.098 30.4277 272.454 29.6814 273.166 29.2029C273.878 28.7187 274.946 28.4509 276.37 28.3997L278.028 28.3484V27.9297C278.028 27.4284 277.897 27.061 277.635 26.8274C277.373 26.5938 277.008 26.4771 276.541 26.4771C276.08 26.4771 275.627 26.5426 275.182 26.6736C274.738 26.8046 274.294 26.9698 273.849 27.1692L272.986 25.4089C273.493 25.1412 274.06 24.9304 274.687 24.7766C275.319 24.6228 275.971 24.5459 276.644 24.5459ZM278.028 29.8694L277.02 29.9036C276.176 29.9264 275.59 30.0773 275.259 30.3564C274.935 30.6356 274.772 31.003 274.772 31.4587C274.772 31.8575 274.889 32.1423 275.123 32.3132C275.356 32.4784 275.661 32.561 276.037 32.561C276.595 32.561 277.065 32.3958 277.447 32.0654C277.834 31.735 278.028 31.2651 278.028 30.6555V29.8694Z" fill="#003D8F"/>
<path d="M266.969 24.5635C268.046 24.5635 268.915 24.9822 269.575 25.8196C270.242 26.657 270.575 27.8846 270.575 29.5024C270.575 30.5848 270.419 31.4963 270.105 32.2368C269.792 32.9717 269.359 33.5271 268.806 33.9031C268.254 34.2791 267.619 34.467 266.901 34.467C266.439 34.467 266.044 34.4101 265.713 34.2961C265.383 34.1765 265.101 34.0256 264.867 33.8433C264.634 33.6553 264.431 33.4559 264.26 33.2451H264.124C264.169 33.473 264.204 33.7065 264.226 33.9458C264.249 34.1851 264.26 34.4186 264.26 34.6465V38.5002H261.654V24.7429H263.773L264.141 25.9819H264.26C264.431 25.7256 264.639 25.4892 264.884 25.2727C265.129 25.0562 265.423 24.8853 265.764 24.76C266.112 24.629 266.514 24.5635 266.969 24.5635ZM266.132 26.6484C265.676 26.6484 265.314 26.7424 265.047 26.9304C264.779 27.1184 264.582 27.4004 264.457 27.7764C264.337 28.1523 264.272 28.628 264.26 29.2034V29.4854C264.26 30.1006 264.317 30.6218 264.431 31.0491C264.551 31.4763 264.748 31.801 265.021 32.0232C265.3 32.2454 265.682 32.3564 266.166 32.3564C266.565 32.3564 266.892 32.2454 267.149 32.0232C267.405 31.801 267.596 31.4763 267.721 31.0491C267.852 30.6161 267.918 30.0892 267.918 29.4683C267.918 28.534 267.772 27.8305 267.482 27.3577C267.191 26.8848 266.741 26.6484 266.132 26.6484Z" fill="#003D8F"/>
<path d="M259.621 31.4592C259.621 32.1086 259.467 32.6584 259.16 33.1084C258.858 33.5527 258.405 33.8917 257.801 34.1252C257.197 34.3531 256.445 34.467 255.545 34.467C254.879 34.467 254.306 34.4243 253.828 34.3389C253.355 34.2534 252.876 34.111 252.392 33.9116V31.7583C252.91 31.9919 253.466 32.1855 254.058 32.3394C254.656 32.4875 255.181 32.5615 255.631 32.5615C256.138 32.5615 256.499 32.4875 256.716 32.3394C256.938 32.1855 257.049 31.9862 257.049 31.7412C257.049 31.5817 257.003 31.4393 256.912 31.314C256.827 31.1829 256.639 31.0377 256.348 30.8782C256.058 30.713 255.602 30.4993 254.981 30.2373C254.383 29.9867 253.89 29.7332 253.503 29.4768C253.121 29.2205 252.836 28.9185 252.648 28.571C252.466 28.2179 252.375 27.7707 252.375 27.2295C252.375 26.3465 252.717 25.6829 253.4 25.2385C254.09 24.7885 255.01 24.5635 256.16 24.5635C256.753 24.5635 257.317 24.6233 257.852 24.7429C258.393 24.8625 258.949 25.0534 259.519 25.3154L258.732 27.1953C258.26 26.9902 257.812 26.8222 257.391 26.6912C256.975 26.5601 256.551 26.4946 256.118 26.4946C255.736 26.4946 255.448 26.5459 255.255 26.6484C255.061 26.751 254.964 26.9076 254.964 27.1184C254.964 27.2722 255.013 27.4089 255.109 27.5286C255.212 27.6482 255.406 27.7821 255.69 27.9302C255.981 28.0726 256.405 28.2577 256.964 28.4856C257.505 28.7078 257.975 28.9413 258.374 29.1863C258.772 29.4255 259.08 29.7246 259.296 30.0835C259.513 30.4367 259.621 30.8953 259.621 31.4592Z" fill="#003D8F"/>
<path d="M244.71 21V26.9473C244.71 27.3062 244.695 27.665 244.667 28.0239C244.639 28.3828 244.607 28.7417 244.573 29.1006H244.607C244.784 28.8499 244.963 28.6021 245.146 28.3572C245.333 28.1122 245.533 27.8758 245.744 27.6479L248.418 24.7427H251.358L247.564 28.887L251.588 34.2959H248.581L245.829 30.425L244.71 31.3223V34.2959H242.104V21H244.71Z" fill="#003D8F"/>
<path d="M239.49 24.5635C239.621 24.5635 239.772 24.572 239.943 24.5891C240.12 24.6005 240.262 24.6176 240.37 24.6404L240.174 27.0842C240.088 27.0557 239.966 27.0358 239.806 27.0244C239.653 27.0073 239.519 26.9988 239.405 26.9988C239.069 26.9988 238.741 27.0415 238.422 27.127C238.109 27.2124 237.827 27.352 237.576 27.5457C237.326 27.7336 237.126 27.9843 236.978 28.2976C236.836 28.6052 236.764 28.984 236.764 29.4341V34.2961H234.158V24.7429H236.132L236.517 26.3494H236.645C236.833 26.0247 237.066 25.7284 237.345 25.4607C237.63 25.1873 237.952 24.9708 238.311 24.8113C238.676 24.6461 239.069 24.5635 239.49 24.5635Z" fill="#003D8F"/>
<path d="M232.005 29.5024C232.005 30.3 231.897 31.0063 231.68 31.6216C231.469 32.2368 231.159 32.7581 230.749 33.1853C230.344 33.6069 229.854 33.9259 229.279 34.1423C228.709 34.3588 228.066 34.467 227.348 34.467C226.676 34.467 226.058 34.3588 225.494 34.1423C224.935 33.9259 224.448 33.6069 224.032 33.1853C223.622 32.7581 223.303 32.2368 223.075 31.6216C222.853 31.0063 222.742 30.3 222.742 29.5024C222.742 28.4429 222.93 27.5457 223.306 26.8108C223.682 26.0759 224.218 25.5177 224.913 25.136C225.608 24.7543 226.436 24.5635 227.399 24.5635C228.294 24.5635 229.085 24.7543 229.775 25.136C230.47 25.5177 231.014 26.0759 231.407 26.8108C231.806 27.5457 232.005 28.4429 232.005 29.5024ZM225.4 29.5024C225.4 30.1291 225.468 30.656 225.605 31.0833C225.741 31.5105 225.955 31.8324 226.246 32.0488C226.536 32.2653 226.915 32.3735 227.382 32.3735C227.844 32.3735 228.217 32.2653 228.501 32.0488C228.792 31.8324 229.003 31.5105 229.134 31.0833C229.271 30.656 229.339 30.1291 229.339 29.5024C229.339 28.8701 229.271 28.346 229.134 27.9302C229.003 27.5086 228.792 27.1925 228.501 26.9817C228.211 26.7709 227.832 26.6655 227.365 26.6655C226.676 26.6655 226.174 26.9019 225.861 27.3748C225.553 27.8476 225.4 28.5568 225.4 29.5024Z" fill="#003D8F"/>
<path d="M221.956 21.8037L218.777 34.2964H215.761L214.069 27.7339C214.035 27.6086 213.989 27.4177 213.932 27.1614C213.875 26.905 213.816 26.6259 213.753 26.324C213.69 26.0164 213.633 25.7287 213.582 25.4609C213.536 25.1875 213.505 24.971 213.488 24.8115C213.471 24.971 213.437 25.1847 213.385 25.4524C213.34 25.7201 213.286 26.005 213.223 26.3069C213.166 26.6088 213.109 26.8908 213.052 27.1528C212.995 27.4149 212.95 27.6143 212.916 27.751L211.232 34.2964H208.224L205.037 21.8037H207.643L209.241 28.6226C209.287 28.8276 209.338 29.0726 209.395 29.3574C209.458 29.6423 209.517 29.9413 209.574 30.2546C209.637 30.5623 209.691 30.8613 209.737 31.1519C209.788 31.4367 209.825 31.6845 209.848 31.8953C209.876 31.6788 209.913 31.4281 209.959 31.1433C210.005 30.8528 210.053 30.5594 210.104 30.2632C210.161 29.9613 210.218 29.6821 210.275 29.4258C210.332 29.1694 210.383 28.9615 210.429 28.802L212.249 21.8037H214.753L216.573 28.802C216.613 28.9558 216.658 29.1637 216.709 29.4258C216.766 29.6821 216.823 29.9613 216.88 30.2632C216.937 30.5651 216.989 30.8613 217.034 31.1519C217.085 31.4367 217.122 31.6845 217.145 31.8953C217.185 31.6104 217.239 31.2658 217.308 30.8613C217.382 30.4512 217.459 30.0439 217.538 29.6394C217.624 29.2349 217.698 28.896 217.76 28.6226L219.35 21.8037H221.956Z" fill="#003D8F"/>
<path d="M193.809 34.4668C192.744 34.4668 191.875 34.0509 191.203 33.2192C190.536 32.3818 190.203 31.1542 190.203 29.5364C190.203 27.9014 190.542 26.6653 191.22 25.8279C191.898 24.9848 192.784 24.5632 193.877 24.5632C194.333 24.5632 194.735 24.6259 195.082 24.7512C195.43 24.8765 195.729 25.0446 195.979 25.2554C196.236 25.4661 196.452 25.7026 196.629 25.9646H196.714C196.68 25.7823 196.637 25.5146 196.586 25.1614C196.541 24.8025 196.518 24.4351 196.518 24.0591V21H199.133V34.2959H197.133L196.629 33.0569H196.518C196.353 33.3189 196.145 33.5582 195.894 33.7747C195.649 33.9854 195.356 34.1535 195.014 34.2788C194.672 34.4041 194.271 34.4668 193.809 34.4668ZM194.723 32.3904C195.435 32.3904 195.937 32.1796 196.227 31.7581C196.524 31.3308 196.68 30.6899 196.697 29.8354V29.5535C196.697 28.6249 196.555 27.9157 196.27 27.4258C195.985 26.9302 195.455 26.6824 194.681 26.6824C194.105 26.6824 193.655 26.9302 193.331 27.4258C193.006 27.9214 192.844 28.6363 192.844 29.5706C192.844 30.5048 193.006 31.2083 193.331 31.6812C193.661 32.154 194.125 32.3904 194.723 32.3904Z" fill="#003D8F"/>
<path d="M188.049 24.7432V34.2964H186.049L185.699 33.0745H185.562C185.357 33.3992 185.101 33.6641 184.793 33.8691C184.486 34.0742 184.147 34.2252 183.776 34.322C183.406 34.4189 183.022 34.4673 182.623 34.4673C181.939 34.4673 181.344 34.3477 180.837 34.1084C180.33 33.8634 179.934 33.4846 179.649 32.9719C179.37 32.4592 179.23 31.7927 179.23 30.9724V24.7432H181.837V30.323C181.837 31.0066 181.959 31.5221 182.204 31.8696C182.449 32.2171 182.839 32.3909 183.375 32.3909C183.905 32.3909 184.32 32.2712 184.622 32.032C184.924 31.787 185.135 31.431 185.255 30.9639C185.38 30.491 185.443 29.9157 185.443 29.2378V24.7432H188.049Z" fill="#003D8F"/>
<path d="M177.128 29.5024C177.128 30.3 177.02 31.0063 176.803 31.6216C176.592 32.2368 176.282 32.7581 175.872 33.1853C175.467 33.6069 174.977 33.9259 174.402 34.1423C173.832 34.3588 173.189 34.467 172.471 34.467C171.799 34.467 171.181 34.3588 170.617 34.1423C170.058 33.9259 169.571 33.6069 169.156 33.1853C168.745 32.7581 168.426 32.2368 168.198 31.6216C167.976 31.0063 167.865 30.3 167.865 29.5024C167.865 28.4429 168.053 27.5457 168.429 26.8108C168.805 26.0759 169.341 25.5177 170.036 25.136C170.731 24.7543 171.559 24.5635 172.522 24.5635C173.417 24.5635 174.208 24.7543 174.898 25.136C175.593 25.5177 176.137 26.0759 176.53 26.8108C176.929 27.5457 177.128 28.4429 177.128 29.5024ZM170.523 29.5024C170.523 30.1291 170.591 30.656 170.728 31.0833C170.865 31.5105 171.078 31.8324 171.369 32.0488C171.659 32.2653 172.038 32.3735 172.505 32.3735C172.967 32.3735 173.34 32.2653 173.625 32.0488C173.915 31.8324 174.126 31.5105 174.257 31.0833C174.394 30.656 174.462 30.1291 174.462 29.5024C174.462 28.8701 174.394 28.346 174.257 27.9302C174.126 27.5086 173.915 27.1925 173.625 26.9817C173.334 26.7709 172.955 26.6655 172.488 26.6655C171.799 26.6655 171.297 26.9019 170.984 27.3748C170.677 27.8476 170.523 28.5568 170.523 29.5024Z" fill="#003D8F"/>
<path d="M165.704 34.2959H163.098V21H165.704V34.2959Z" fill="#003D8F"/>
<path d="M157.97 34.467C157.025 34.467 156.219 34.2961 155.552 33.9543C154.885 33.6069 154.378 33.0714 154.031 32.3479C153.684 31.6244 153.51 30.6987 153.51 29.5708C153.51 28.403 153.706 27.4517 154.099 26.7168C154.498 25.9762 155.048 25.4322 155.749 25.0847C156.455 24.7372 157.272 24.5635 158.201 24.5635C158.862 24.5635 159.431 24.629 159.91 24.76C160.394 24.8853 160.816 25.0363 161.175 25.2129L160.406 27.2295C159.995 27.0643 159.614 26.9304 159.26 26.8279C158.907 26.7196 158.554 26.6655 158.201 26.6655C157.745 26.6655 157.366 26.7738 157.064 26.9902C156.763 27.201 156.538 27.52 156.389 27.9473C156.241 28.3745 156.167 28.91 156.167 29.5537C156.167 30.186 156.247 30.7101 156.406 31.126C156.566 31.5418 156.797 31.8523 157.099 32.0574C157.401 32.2568 157.768 32.3564 158.201 32.3564C158.742 32.3564 159.223 32.2852 159.645 32.1428C160.067 31.9947 160.477 31.7896 160.875 31.5276V33.7578C160.477 34.0085 160.058 34.1879 159.619 34.2961C159.186 34.4101 158.637 34.467 157.97 34.467Z" fill="#003D8F"/>
<path d="M150.512 32.3904C150.797 32.3904 151.073 32.3619 151.341 32.3049C151.614 32.248 151.885 32.1768 152.152 32.0913V34.031C151.873 34.1563 151.526 34.2589 151.11 34.3386C150.7 34.4241 150.25 34.4668 149.76 34.4668C149.19 34.4668 148.677 34.3757 148.222 34.1934C147.772 34.0054 147.416 33.6835 147.154 33.2278C146.897 32.7664 146.769 32.1255 146.769 31.3052V26.6995H145.521V25.5972L146.957 24.7256L147.709 22.709H149.375V24.7427H152.05V26.6995H149.375V31.3052C149.375 31.6698 149.478 31.9432 149.683 32.1255C149.894 32.3021 150.17 32.3904 150.512 32.3904Z" fill="#003D8F"/>
<path d="M138.326 29.4172L135.25 24.7432H138.207L140.061 27.7852L141.932 24.7432H144.889L141.779 29.4172L145.034 34.2964H142.069L140.061 31.0237L138.044 34.2964H135.088L138.326 29.4172Z" fill="#003D8F"/>
<path d="M129.969 24.5635C130.852 24.5635 131.613 24.7344 132.251 25.0762C132.889 25.4123 133.382 25.9022 133.729 26.5459C134.077 27.1896 134.25 27.9757 134.25 28.9043V30.1689H128.09C128.118 30.9038 128.337 31.482 128.748 31.9036C129.163 32.3194 129.739 32.5273 130.474 32.5273C131.083 32.5273 131.641 32.4647 132.148 32.3394C132.655 32.214 133.177 32.026 133.712 31.7754V33.792C133.239 34.0256 132.744 34.1965 132.225 34.3047C131.713 34.4129 131.089 34.467 130.354 34.467C129.397 34.467 128.548 34.2904 127.808 33.9373C127.073 33.5841 126.495 33.0457 126.073 32.3223C125.657 31.5988 125.449 30.6873 125.449 29.5879C125.449 28.4714 125.637 27.5428 126.013 26.8022C126.395 26.056 126.925 25.4977 127.603 25.1274C128.28 24.7515 129.069 24.5635 129.969 24.5635ZM129.987 26.4177C129.48 26.4177 129.058 26.5801 128.722 26.9048C128.392 27.2295 128.201 27.7393 128.149 28.4343H131.807C131.801 28.047 131.73 27.7023 131.593 27.4004C131.462 27.0985 131.263 26.8592 130.995 26.6826C130.733 26.506 130.397 26.4177 129.987 26.4177Z" fill="#003D8F"/>
<path d="M123.083 34.2964H119.716L114.281 24.8457H114.205C114.227 25.2388 114.247 25.6347 114.264 26.0334C114.281 26.4322 114.299 26.831 114.316 27.2297C114.333 27.6228 114.35 28.0187 114.367 28.4175V34.2964H112V21.8037H115.341L120.767 31.1604H120.827C120.816 30.773 120.801 30.3885 120.784 30.0068C120.767 29.6252 120.75 29.2435 120.733 28.8618C120.722 28.4801 120.71 28.0985 120.699 27.7168V21.8037H123.083V34.2964Z" fill="#003D8F"/>
<defs>
<clipPath id="clip0_82_6226">
<rect width="69.1001" height="20.1471" fill="white" transform="translate(25.75 15)"/>
</clipPath>
</defs>
</svg>
